# xmcd
#
# Track frame offsets:
# 150
# 14743
# 17497
# 34122
# 49615
# 53020
# 70729
# 86665
# 104440
# 122617
# 139025
# 140876
# 158252
# 176640
# 178720
# 193266
#
# Disc length: 2747 seconds
#
#
# Revision: 0
# Processed by: cddbd v1.5.2PL0 Copyright (c) Steve Scherf et al.
# Submitted via: FreeRIP 2.951 
#
DISCID=d90ab910
DTITLE=Pigeon John - Pigeon John and the summertime pool party
DYEAR=1900
DGENRE=Hip-Hop
TTITLE0=Welcome to the Show
TTITLE1=Scene I I thought you was a G
TTITLE2=do the pigeon
TTITLE3=higher
TTITLE4=scene II I was looking at her jeans
TTITLE5=money back guarantee
TTITLE6=freaks freaks(dj Rhettmatic)
TTITLE7=one for the(Brother Ali)
TTITLE8=the last sunshine(Rjd2 JLive)
TTITLE9=weight of the world
TTITLE10=SceneIII black man on a white horse
TTITLE11=as we know it
TTITLE12=i lost my job again
TTITLE13=SceneIV the girls the fantastic fireworks
TTITLE14=brand new day
TTITLE15=growin old
EXTD=
EXTT0=
EXTT1=
EXTT2=
EXTT3=
EXTT4=
EXTT5=
EXTT6=
EXTT7=
EXTT8=
EXTT9=
EXTT10=
EXTT11=
EXTT12=
EXTT13=
EXTT14=
EXTT15=
PLAYORDER=
